# xmcd
#
# Track frame offsets: 
#        150
#        26866
#        45005
#        62874
#        75378
#        89048
#        109262
#        123922
#        141146
#        156895
#        176730
#        195405
#        227720
#
# Disc length: 3227 seconds
#
# Revision: 2
# Processed by: cddbd v1.5.2PL0 Copyright (c) Steve Scherf et al.
# Submitted via: ExactAudioCopy v1.0b3
#
DISCID=a70c990d
DTITLE=Various Artist - Chicago Blues A Living History The Revolution
DTITLE=Continues [CD2]
DYEAR=2011
DGENRE=Blues
TTITLE0=E. Montgomery - First Time I Met The Blues
TTITLE1=Chuck Willis - Keep A-Driving
TTITLE2=Samuel Maghett - Easy Baby
TTITLE3=Chester Burnett - Howlin' For My Baby
TTITLE4=Robert Lockwood, Jr. - My Daily Wish
TTITLE5=Elmore James - Yonder Wall
TTITLE6=Albert Luandrew - Be Careful How You Vote
TTITLE7=Fenton Robinson - Somebody Loan Me A Dime
TTITLE8=Lurrie Bell - Got To Leave Chi-Town
TTITLE9=Lonnie Brooks - Don't Take Advantage of Me
TTITLE10=Otis Rush - Ain't Enough Coming In
TTITLE11=Ronnie Baker Brooks - Make These Blues Survive
TTITLE12=McKinley Morganfield - The Blues Had a Baby (And They Named i
TTITLE12=t Rock and Roll)
EXTD=
EXTT0=
EXTT1=
EXTT2=
EXTT3=
EXTT4=
EXTT5=
EXTT6=
EXTT7=
EXTT8=
EXTT9=
EXTT10=
EXTT11=
EXTT12=
PLAYORDER=
